<?xml version="1.0" encoding="iso-8859-1"?>
<!-- Generator: Adobe Illustrator 19.0.0, SVG Export Plug-In . SVG Version: 6.00 Build 0)  -->
<svg version="1.1" id="Layer_1" xmlns="http://www.w3.org/2000/svg" xmlns:xlink="http://www.w3.org/1999/xlink" x="0px" y="0px"
	 viewBox="0 0 512 512" style="enable-background:new 0 0 512 512;" xml:space="preserve">
<g>
	<circle style="fill:#1669AD;" cx="256" cy="256" r="256"/>
	<circle style="fill:#2A81C2;" cx="256" cy="256" r="203.503"/>
	<circle style="fill:#E65439;" cx="267.602" cy="297.295" r="36.376"/>
	<path style="fill:#E8E9EC;" d="M449.042,250.215c-0.013-0.428-0.033-0.854-0.048-1.281c-0.061-1.613-0.135-3.221-0.233-4.824
		c-0.018-0.287-0.036-0.574-0.055-0.861c-0.261-3.939-0.636-7.85-1.127-11.723h0.019c-5.367-42.447-24.52-80.594-52.82-109.83
		c-3,1.725-5.024,4.955-5.024,8.666v48.92h-21.869c-4.533,0-8.207,3.674-8.207,8.207v59.006h-14.773
		c-4.533,0-8.207,3.674-8.207,8.207v21.775h-11.49v-8.773c0-3.514-2.848-6.361-6.361-6.361s-6.36,2.848-6.36,6.361v8.773h-1.642
		c-2.059,0-3.936,0.764-5.376,2.016v-0.002l-37.865,29.012c0,0,21.25,5.5,21.625,5.625c0.274,0.092,8.83-2.223,13.409-3.475v81.727
		c0,4.533,3.674,8.207,8.207,8.207h74.315c0.003-0.004,0.007-0.006,0.01-0.01c7.345-6.611,14.18-13.779,20.438-21.436
		c0.058-0.072,0.114-0.145,0.173-0.215c0.959-1.178,1.905-2.365,2.837-3.564c0.134-0.172,0.265-0.346,0.397-0.518
		c0.852-1.105,1.693-2.219,2.521-3.342c0.174-0.236,0.346-0.475,0.52-0.711c0.779-1.066,1.549-2.141,2.307-3.225
		c0.196-0.281,0.392-0.564,0.587-0.848c0.726-1.049,1.442-2.105,2.147-3.17c0.207-0.311,0.412-0.623,0.616-0.936
		c0.685-1.047,1.359-2.102,2.024-3.16c0.207-0.332,0.415-0.662,0.621-0.994c0.653-1.059,1.296-2.123,1.93-3.193
		c0.2-0.338,0.401-0.674,0.6-1.012c0.631-1.082,1.25-2.172,1.861-3.268c0.186-0.332,0.373-0.662,0.557-0.994
		c0.619-1.125,1.225-2.26,1.822-3.398c0.16-0.307,0.325-0.611,0.484-0.918c0.625-1.207,1.233-2.424,1.834-3.645
		c0.119-0.242,0.243-0.484,0.361-0.729c0.668-1.371,1.317-2.754,1.953-4.145c0.043-0.096,0.089-0.188,0.132-0.283
		c2.057-4.521,3.944-9.137,5.654-13.836c0.097-0.266,0.187-0.535,0.282-0.803c0.455-1.268,0.902-2.539,1.331-3.818
		c0.149-0.447,0.29-0.896,0.437-1.344c0.361-1.105,0.72-2.215,1.062-3.33c0.167-0.541,0.323-1.086,0.485-1.631
		c0.306-1.027,0.608-2.057,0.897-3.094c0.167-0.6,0.327-1.205,0.489-1.807c0.265-0.988,0.526-1.975,0.775-2.969
		c0.162-0.641,0.316-1.283,0.471-1.928c0.232-0.965,0.459-1.93,0.676-2.9c0.15-0.668,0.295-1.34,0.438-2.012
		c0.202-0.951,0.398-1.906,0.587-2.863c0.137-0.689,0.27-1.381,0.397-2.074c0.177-0.947,0.344-1.898,0.506-2.852
		c0.12-0.705,0.238-1.41,0.351-2.117c0.151-0.951,0.291-1.906,0.429-2.863c0.103-0.711,0.205-1.422,0.299-2.135
		c0.127-0.963,0.241-1.932,0.354-2.898c0.083-0.713,0.169-1.424,0.244-2.139c0.104-0.984,0.193-1.975,0.281-2.965
		c0.063-0.701,0.132-1.398,0.188-2.102c0.081-1.031,0.145-2.068,0.21-3.105c0.042-0.664,0.091-1.328,0.126-1.994
		c0.061-1.15,0.101-2.303,0.141-3.457c0.02-0.559,0.049-1.115,0.064-1.674c0.045-1.717,0.069-3.438,0.069-5.166
		C449.136,254.064,449.1,252.137,449.042,250.215z"/>
	<path style="fill:#CDCCCA;" d="M423.821,160.353v40.611h-23.735c-5.075,0-9.189,4.113-9.189,9.188v54.111H379.41
		c-5.075,0-9.189,4.113-9.189,9.189v18.254h-27.338c-5.075,0-9.189,4.115-9.189,9.189v1.379c0,5.076,4.114,9.189,9.189,9.189h31.014
		c0.96,0,1.886-0.148,2.756-0.422c0.871,0.273,1.797,0.422,2.758,0.422h18.739c1.099,3.844,4.63,6.662,8.828,6.662h31.946
		c6.619-19.496,10.212-40.393,10.212-62.127C449.136,221.201,439.928,188.553,423.821,160.353z"/>
	<path style="fill:#3AB49C;" d="M387.891,328.293h-80.956c-12.219,0-22.124,9.906-22.124,22.125h-25.182
		c-9.906,0-17.938,8.031-17.938,17.938c0,6.049,3.003,11.387,7.59,14.637c-0.192,0.799-0.305,1.629-0.305,2.486
		c0,5.881,4.768,10.648,10.648,10.648h104.203c5.881,0,10.648-4.768,10.648-10.648s-4.768-10.648-10.648-10.648h-2.926
		c0.287-0.742,0.541-1.502,0.729-2.287h26.259c12.219,0,22.124-9.906,22.124-22.125S400.109,328.293,387.891,328.293z"/>
	<path style="fill:#CDCCCA;" d="M387.891,328.293h-80.956c-12.219,0-22.124,9.906-22.124,22.125h-25.182
		c-9.906,0-17.938,8.031-17.938,17.938c0,1.719,0.25,3.377,0.702,4.949c2.144-7.506,9.041-13.008,17.235-13.008h25.182
		c0-12.219,9.905-22.125,22.124-22.125h80.956c10.52,0,19.318,7.346,21.563,17.186c0.362-1.59,0.561-3.24,0.561-4.939
		C410.015,338.199,400.109,328.293,387.891,328.293z"/>
	<path style="fill:#CDCCCA;" d="M376.227,377.252l-10.625-3l-4.699,0.578v9.879h2.926c4.097,0,7.648,2.316,9.429,5.709
		c0.775-1.477,1.22-3.156,1.22-4.939c0-0.545-0.043-1.08-0.123-1.602h2.623L376.227,377.252z"/>
	<path style="fill:#E8E9EC;" d="M68.031,300.525c20.107,85.2,96.628,148.61,187.969,148.61s167.862-63.41,187.969-148.609H68.031
		V300.525z M387.891,372.543h-26.259c-0.188,0.785-0.442,1.545-0.729,2.287h2.926c5.881,0,10.648,4.768,10.648,10.648
		s-4.768,10.648-10.648,10.648H259.625c-5.881,0-10.648-4.768-10.648-10.648c0-0.857,0.112-1.688,0.305-2.486
		c-4.587-3.25-7.59-8.588-7.59-14.637c0-9.906,8.031-17.938,17.938-17.938h25.182c0-12.219,9.905-22.125,22.124-22.125h80.956
		c12.219,0,22.124,9.906,22.124,22.125S400.109,372.543,387.891,372.543z"/>
	<path style="fill:#E8E9EC;" d="M167.037,219.848c-29.11,0-52.708,23.598-52.708,52.707v54.088h105.416v-54.088
		C219.745,243.445,196.147,219.848,167.037,219.848z"/>
	<path style="fill:#CDCCCA;" d="M172.48,220.127c-1.79-0.184-3.605-0.279-5.443-0.279c-29.11,0-52.708,23.598-52.708,52.707v54.088
		h10.886v-54.088C125.215,245.283,145.928,222.85,172.48,220.127z"/>
	<path style="fill:#CDCCCA;" d="M185.652,267.527c-1.006,0-1.987,0.141-2.936,0.402c-6.745,1.861-11.824,10.012-11.824,19.785
		v38.928h14.76h8.888h5.871h24.815v-59.115L185.652,267.527L185.652,267.527z"/>
	<path style="fill:#E8E9EC;" d="M225.99,267.527c-1.375,0-2.718,0.141-4.016,0.402c-9.226,1.861-16.173,10.012-16.173,19.785v38.928
		h32.346h8.031v-38.928C246.179,276.566,237.141,267.527,225.99,267.527z"/>
	<path style="fill:#494A4A;" d="M222.867,274.41L222.867,274.41c-7.176,1.447-12.578,7.785-12.578,15.389v36.844h25.156v-36.844
		C235.445,282.195,230.042,275.857,222.867,274.41z"/>
	<path style="fill:#CDCCCA;" d="M241.691,289.799c0-8.672-7.029-15.703-15.701-15.703c-1.069,0-2.113,0.109-3.123,0.314l0,0
		c7.175,1.447,12.578,7.785,12.578,15.389v36.844h6.246V289.799z"/>
	<path style="fill:#CDCCCA;" d="M241.691,326.643h-3.544h-2.702h-10.219h-5.481h-9.456h-4.487h-5.391h-5.871h-8.888h-14.76h-45.678
		h-10.886l-26.11,25.066c11.566,20.23,26.684,38.166,44.507,52.959c8.957-5.77,17.524-12.154,25.201-18.91h5.727l0.041-0.039
		c0.246,0.01,0.465,0.039,0.723,0.039c11.15,0,29.604-9.039,41.216-20.189l40.546-38.926H241.691z"/>
	<path style="fill:#1B9D7E;" d="M386.227,349.002c0,2.002-1.623,3.625-3.625,3.625h-70.25c-2.002,0-3.625-1.623-3.625-3.625l0,0
		c0-2.002,1.623-3.625,3.625-3.625h70.25C384.604,345.377,386.227,347,386.227,349.002L386.227,349.002z"/>
	<path style="fill:#1B9D7E;" d="M338.575,359.006c0,1.342-1.089,2.432-2.432,2.432h-42.517c-1.343,0-2.432-1.09-2.432-2.432l0,0
		c0-1.344,1.089-2.432,2.432-2.432h42.517C337.486,356.574,338.575,357.662,338.575,359.006L338.575,359.006z"/>
	<path style="fill:#1B9D7E;" d="M347.477,366.144c0,1.213-0.983,2.195-2.197,2.195h-28.982c-1.213,0-2.196-0.982-2.196-2.195l0,0
		c0-1.215,0.983-2.197,2.196-2.197h28.982C346.493,363.947,347.477,364.93,347.477,366.144L347.477,366.144z"/>
	<path style="fill:#1B9D7E;" d="M362.892,359.006c0,1.342-1.089,2.432-2.432,2.432h-7.373c-1.343,0-2.432-1.09-2.432-2.432l0,0
		c0-1.344,1.089-2.432,2.432-2.432h7.373C361.803,356.574,362.892,357.662,362.892,359.006L362.892,359.006z"/>
	<path style="fill:#1B9D7E;" d="M321.631,373.154c0,0.926-0.75,1.676-1.676,1.676h-57.832c-0.926,0-1.677-0.75-1.677-1.676l0,0
		c0-0.926,0.751-1.676,1.677-1.676h57.832C320.881,371.478,321.631,372.228,321.631,373.154L321.631,373.154z"/>
	<path style="fill:#1B9D7E;" d="M336.222,381.598c0,1.863-1.511,3.373-3.373,3.373h-44.085c-1.863,0-3.373-1.51-3.373-3.373l0,0
		c0-1.863,1.51-3.373,3.373-3.373h44.085C334.711,378.225,336.222,379.734,336.222,381.598L336.222,381.598z"/>
	<path style="fill:#1B9D7E;" d="M276.448,381.598c0,1.863-1.511,3.373-3.373,3.373h-6.746c-1.862,0-3.373-1.51-3.373-3.373l0,0
		c0-1.863,1.511-3.373,3.373-3.373h6.746C274.938,378.225,276.448,379.734,276.448,381.598L276.448,381.598z"/>
	<path style="fill:#1B9D7E;" d="M360.068,391.088c0,1.213-0.983,2.197-2.196,2.197h-55.694c-1.213,0-2.196-0.984-2.196-2.197l0,0
		c0-1.213,0.983-2.195,2.196-2.195h55.694C359.085,388.893,360.068,389.875,360.068,391.088L360.068,391.088z"/>
	<path style="fill:#1B9D7E;" d="M365.402,366.144c0,1.213-0.983,2.195-2.197,2.195h-3.607c-1.213,0-2.196-0.982-2.196-2.195l0,0
		c0-1.215,0.983-2.197,2.196-2.197h3.607C364.419,363.947,365.402,364.93,365.402,366.144L365.402,366.144z"/>
	<path style="fill:#E8E9EC;" d="M284.354,143.359h-50.185v-0.178h-6.141c-1.739,0-3.147-1.41-3.147-3.148s1.408-3.148,3.147-3.148
		h6.141h3.101c7.094,0,12.848-5.752,12.848-12.848c0-7.094-5.754-12.846-12.848-12.846h-84.83c-7.096,0-12.849,5.752-12.849,12.846
		c0,7.096,5.753,12.848,12.849,12.848h3.87h5.635c1.738,0,3.148,1.41,3.148,3.148s-1.41,3.148-3.148,3.148h-5.635v0.178h-35.695
		c-3.471,0-6.286,2.814-6.286,6.287c0,3.471,2.815,6.285,6.286,6.285h67.217h29.303h67.219c3.47,0,6.283-2.814,6.283-6.285
		C290.637,146.174,287.823,143.359,284.354,143.359z"/>
	<path style="fill:#CDCCCA;" d="M249.896,222.103h-17.663h-0.719c-0.727,0-1.316-0.592-1.316-1.318s0.59-1.316,1.316-1.316h0.719
		v-0.004h0.606c2.603,0,4.712-2.111,4.712-4.713s-2.109-4.711-4.712-4.711h-33.516c-2.603,0-4.712,2.109-4.712,4.711
		s2.109,4.713,4.712,4.713h15.938v0.004h0.843c0.727,0,1.317,0.59,1.317,1.316s-0.591,1.318-1.317,1.318h-0.843h-0.691
		c-0.677,0-1.225,0.547-1.225,1.225s0.548,1.225,1.225,1.225h35.325c0.677,0,1.226-0.547,1.226-1.225
		S250.573,222.103,249.896,222.103z"/>
	<path style="fill:#CDCCCA;" d="M302.717,252.746h-14.516h-0.59c-0.598,0-1.083-0.486-1.083-1.082c0-0.598,0.485-1.084,1.083-1.084
		h0.59v-0.004h0.499c2.139,0,3.872-1.734,3.872-3.873s-1.733-3.871-3.872-3.871h-27.544c-2.141,0-3.873,1.732-3.873,3.871
		s1.732,3.873,3.873,3.873h13.098v0.004h0.692c0.599,0,1.083,0.486,1.083,1.084c0,0.596-0.484,1.082-1.083,1.082h-0.692h-0.567
		c-0.558,0-1.008,0.449-1.008,1.006s0.45,1.008,1.008,1.008h29.03c0.558,0,1.008-0.451,1.008-1.008S303.274,252.746,302.717,252.746
		z"/>
	<path style="fill:#CDCCCA;" d="M337.69,190.607h-17.644c0.303-1.018,0.471-2.096,0.471-3.213c0-6.209-5.033-11.244-11.243-11.244
		h-45.782c-6.209,0-11.243,5.035-11.243,11.244c0,6.211,5.034,11.244,11.243,11.244h26.907h18.875h28.416
		c2.219,0,4.017-1.797,4.017-4.014C341.707,192.406,339.909,190.607,337.69,190.607z"/>
</g>
<g>
</g>
<g>
</g>
<g>
</g>
<g>
</g>
<g>
</g>
<g>
</g>
<g>
</g>
<g>
</g>
<g>
</g>
<g>
</g>
<g>
</g>
<g>
</g>
<g>
</g>
<g>
</g>
<g>
</g>
</svg>
